<svg xmlns="http://www.w3.org/2000/svg" xmlns:xlink="http://www.w3.org/1999/xlink" preserveAspectRatio="xMidYMid meet" version="1.0" viewBox="12.2 12.9 90.2 131.7" zoomAndPan="magnify" style="fill: rgb(166, 166, 166);" original_string_length="893"><g id="__id233_s79fqal8oj"><path d="m57.309 28.614c12.105 0 19.901 12.698 20.064 28.446h-40.128c0.1626-15.747 7.9589-28.446 20.064-28.446zm0-15.723c-18.861 0-34.145 19.958-34.145 44.575l0.0081 0.6178c-6.4143 2.3495-10.983 8.4874-10.983 15.69v39.209c0 17.454 20.202 31.608 45.12 31.608 24.917 0 45.12-14.154 45.12-31.608v-39.209c0-7.2029-4.5689-13.341-10.983-15.69l0.0081-0.6178c0-24.617-15.284-44.575-34.145-44.575zm-12.804 81.248c0-7.0484 5.7314-12.764 12.804-12.764 7.0728 0 12.804 5.7152 12.804 12.764 0 4.512-2.3495 8.4792-5.894 10.747v11.747h-13.82v-11.747c-3.5445-2.2682-5.894-6.2354-5.894-10.747z" fill-rule="evenodd" style="fill: inherit;"/></g></svg>