<svg xmlns="http://www.w3.org/2000/svg" xmlns:xlink="http://www.w3.org/1999/xlink" preserveAspectRatio="xMidYMid meet" version="1.0" viewBox="0.0 0.0 126.9 128.9" zoomAndPan="magnify" style="fill: rgb(115, 115, 115);" original_string_length="945"><g id="__id193_sih9e8nxac"><path d="M89.03,99.74c0.99,0,1.97,0.3,2.81,0.89l17.75,12.49l-4.25-23.39c-0.28-1.53,0.19-3.11,1.26-4.23 c7.4-7.79,10.55-16.28,10.55-28.39c0-12.54-5.51-24.36-15.52-33.29C91.45,14.75,77.9,9.76,63.45,9.76 C33.85,9.77,9.76,31,9.76,57.11c0,26.11,24.08,47.35,53.69,47.35c9.93,0,16.97-1.28,23.56-4.27 C87.65,99.89,88.34,99.74,89.03,99.74 M116.52,128.85c-0.98,0-1.97-0.3-2.81-0.89l-25.27-17.79c-7.16,2.82-14.82,4.04-24.98,4.04 C28.46,114.21,0,88.6,0,57.11C0,25.62,28.46,0,63.45,0c16.84,0,32.71,5.87,44.66,16.54c12.11,10.8,18.79,25.21,18.79,40.57 c0,13.7-3.58,24.07-11.54,33.25l5.96,32.75c0.35,1.95-0.5,3.92-2.17,4.99C118.34,128.6,117.43,128.85,116.52,128.85" style="fill: inherit;"/></g></svg>