<svg class="qY_pAA" viewBox="0 0 47.315200221841735 9.115492339448423" style="overflow: hidden; width: 132.767px; height: 25.5781px;"><defs><clipPath id="__id1718"><path d="M4.55774617,0L42.75745405,0C45.27462776,0 47.31520022,2.04057247 47.31520022,4.55774617L47.31520022,4.55774617C47.31520022,7.07491987 45.27462776,9.11549234 42.75745405,9.11549234L4.55774617,9.11549234C2.04057247,9.11549234 0,7.07491987 0,4.55774617L0,4.55774617C0,2.04057247 2.04057247,0 4.55774617,0Z"></path></clipPath></defs><path d="M4.55774617,0L42.75745405,0C45.27462776,0 47.31520022,2.04057247 47.31520022,4.55774617L47.31520022,4.55774617C47.31520022,7.07491987 45.27462776,9.11549234 42.75745405,9.11549234L4.55774617,9.11549234C2.04057247,9.11549234 0,7.07491987 0,4.55774617L0,4.55774617C0,2.04057247 2.04057247,0 4.55774617,0Z" stroke="#241d60" stroke-width="4" stroke-linecap="butt" clip-path="url(#__id1718)" fill="none" vector-effect="non-scaling-stroke"></path></svg>