<svg xmlns="http://www.w3.org/2000/svg" xmlns:xlink="http://www.w3.org/1999/xlink" clip-rule="evenodd" fill-rule="evenodd" image-rendering="optimizeQuality" preserveAspectRatio="xMidYMid meet" shape-rendering="geometricPrecision" text-rendering="geometricPrecision" version="1.0" viewBox="2367.0 2367.0 4410.0 4410.0" zoomAndPan="magnify" style="fill: rgb(0, 0, 0);" original_string_length="1544"><defs><linearGradient xmlns:xlink="http://www.w3.org/1999/xlink" gradientUnits="userSpaceOnUse" id="__id192_s79fqal8oj" x1="10043" x2="-898.9" xlink:actuate="onLoad" xlink:show="other" xlink:type="simple" y1="6303" y2="2841"><stop offset="0" style="stop-color: rgb(17, 6, 59);"/><stop offset="1" style="stop-color: rgb(17, 6, 59);"/></linearGradient></defs><g id="__id193_s79fqal8oj"><path d="m2820 5353l1212-1265c34-35 90-36 125-3l806 841 449-418c35-34 91-32 124 4l793 846c34 36 32 91-3 125-19 17-42 25-65 23h-948v1h-2434c-49 0-89-40-89-89 0-26 12-49 30-65zm-276 612h4056v-3421h-4056v3421zm4056 177h-4056v458h4056v-458zm-4145-3775h4234c48 0 88 40 88 88v4234c0 48-40 88-88 88h-4234c-48 0-88-40-88-88v-4234c0-48 40-88 88-88zm2543 1062c217 4 356 126 417 281 23 58 34 122 33 185 0 63-13 126-37 184-63 150-202 265-416 263-223-2-366-124-429-279-23-59-35-122-34-186 0-64 13-128 38-186 65-150 208-265 428-262zm253 345c-37-93-122-167-256-169-137-2-225 66-263 156-16 37-24 77-25 117 0 41 7 82 23 120 37 93 126 167 266 169 131 1 216-67 253-156 15-37 23-77 23-118 1-40-6-81-21-119zm216 922l-382 358 265 277h712l-595-635zm-1371-420l-1011 1054h2021l-1010-1054z" fill-rule="nonzero" style="fill: rgb(17, 6, 59);"/></g></svg>