<svg xmlns="http://www.w3.org/2000/svg" xmlns:xlink="http://www.w3.org/1999/xlink" preserveAspectRatio="xMidYMid meet" version="1.0" viewBox="1.8 2.2 28.5 27.3" zoomAndPan="magnify" style="fill: rgb(115, 115, 115);" original_string_length="962"><g id="__id198_sih9e8nxac"><path d="M29.85,9.33c-0.62-3.3-3.26-5.96-6.56-6.62C20.64,2.18,17.94,2.92,16,4.65c-1.94-1.73-4.64-2.47-7.29-1.94 c-3.3,0.66-5.94,3.32-6.56,6.62c-0.38,2.05-0.04,4.13,0.98,5.85c0.23,0.4,1.04,1.38,1.3,1.7l10.82,12.24 c0.19,0.21,0.46,0.34,0.75,0.34s0.56-0.12,0.75-0.34l10.84-12.27c0.24-0.29,1.05-1.28,1.28-1.67 C29.88,13.46,30.23,11.38,29.85,9.33z M27.14,14.17c-0.1,0.17-0.65,0.87-1.07,1.39L16,26.96L5.96,15.59c-0.45-0.54-1-1.24-1.1-1.42 c-0.77-1.31-1.03-2.9-0.74-4.47C4.59,7.19,6.59,5.17,9.1,4.67c0.45-0.09,0.9-0.13,1.34-0.13c1.85,0,3.59,0.77,4.8,2.19 c0.38,0.44,1.14,0.44,1.52,0c1.5-1.75,3.8-2.52,6.14-2.06c2.51,0.5,4.51,2.52,4.98,5.03C28.18,11.27,27.91,12.86,27.14,14.17z" style="fill: inherit;"/></g></svg>