<svg xmlns="http://www.w3.org/2000/svg" xmlns:xlink="http://www.w3.org/1999/xlink" preserveAspectRatio="xMidYMid meet" version="1.0" viewBox="4.0 4.0 120.0 120.0" zoomAndPan="magnify" style="fill: rgb(0, 0, 0);" original_string_length="739"><g id="__id224_s79fqal8oj" style="fill: rgb(182, 178, 178);"><path d="M64,4C30.916,4,4,30.916,4,64s26.916,60,60,60s60-26.916,60-60S97.084,4,64,4z M64,116 c-28.673,0-52-23.327-52-52s23.327-52,52-52s52,23.327,52,52S92.673,116,64,116z" style="fill: inherit;"/><path d="M57.822,37.307c-1.562-1.561-4.094-1.561-5.657,0c-1.562,1.562-1.562,4.095,0,5.657L73.201,64 L52.165,85.037c-1.562,1.562-1.562,4.095,0,5.656c0.781,0.781,1.805,1.172,2.829,1.172s2.047-0.391,2.829-1.172l23.864-23.865 c1.562-1.562,1.562-4.094,0-5.657L57.822,37.307z" style="fill: inherit;"/></g></svg>