<svg xmlns="http://www.w3.org/2000/svg" xmlns:xlink="http://www.w3.org/1999/xlink" preserveAspectRatio="xMidYMid meet" version="1.0" viewBox="230.4 306.7 3187.2 3473.9" zoomAndPan="magnify" style="fill: rgb(0, 0, 0);" original_string_length="9568"><g id="__id187_s79fqal8oj" style="fill: rgb(17, 6, 59);"><path d="M-97.7866,-33.9487 L-97.7866,93.7534 C-97.7866,111.85 -86.3533,126.901 -71.5801,126.901 L71.5801,126.901 C86.0898,126.901 97.5427,111.924 97.7863,94.0869 L97.7866,-68.1713 C97.7866,-69.1785 97.3702,-70.1409 96.6361,-70.8304 C91.4843,-75.6689 83.6889,-83.2058 69.6623,-96.8623 C69.5823,-96.9401 69.5823,-96.9401 69.5024,-97.018 C46.8806,-119.043 44.5653,-121.29 40.2614,-125.333 C39.585,-125.968 38.6919,-126.321 37.764,-126.321 L-71.5801,-126.321 C-85.9465,-126.321 -97.7866,-108.031 -97.7866,-89.1488 C-97.7866,-87.1341 -96.1534,-85.5008 -94.1386,-85.5008 C-92.1239,-85.5008 -90.4906,-87.1341 -90.4906,-89.1488 C-90.4906,-104.494 -81.0843,-119.025 -71.5801,-119.025 L37.764,-119.025 L35.2666,-120.014 C39.5195,-116.02 41.8702,-113.738 64.4127,-91.7905 C64.4927,-91.7126 64.4927,-91.7126 64.5727,-91.6347 C78.6362,-77.9423 86.4441,-70.3933 91.6412,-65.5122 L90.4906,-68.1713 L90.4906,94.0371 C90.2968,108.208 81.5811,119.605 71.5801,119.605 L-71.5801,119.605 C-81.8189,119.605 -90.4906,108.19 -90.4906,93.7534 L-90.4906,-33.9487 C-90.4906,-35.9634 -92.1239,-37.5967 -94.1386,-37.5967 C-96.1534,-37.5967 -97.7866,-35.9634 -97.7866,-33.9487 Z M34.116,-122.673 L34.116,-82.535 C34.116,-82.4116 34.1222,-82.2882 34.1347,-82.1655 C35.3036,-70.6858 42.8387,-64.5233 54.0151,-64.5233 L94.1386,-64.5233 C97.4184,-64.5233 99.0323,-68.5143 96.6742,-70.794 L40.2996,-125.296 C37.9843,-127.535 34.116,-125.894 34.116,-122.673 Z M41.412,-122.673 L35.2284,-120.051 L91.603,-65.5486 L94.1386,-71.8193 L54.0151,-71.8193 C46.4366,-71.8193 42.1663,-75.3117 41.3932,-82.9045 L41.412,-82.535 L41.412,-122.673 Z M-133.124,-40.5625 C-133.124,-34.5972 -126.949,-30.3866 -119.914,-30.3009 L-58.3103,-30.3007 C-51.1797,-30.3007 -44.9621,-34.5119 -44.9621,-40.5625 L-44.9621,-82.535 C-44.9621,-88.5522 -51.1462,-92.7968 -58.3103,-92.7968 L-119.776,-92.7968 C-126.907,-92.7968 -133.124,-88.5856 -133.124,-82.535 L-133.124,-40.5625 Z M-125.828,-40.5625 L-125.828,-82.535 C-125.828,-83.8175 -123.343,-85.5008 -119.776,-85.5008 L-58.3103,-85.5008 C-54.7192,-85.5008 -52.2581,-83.8116 -52.2581,-82.535 L-52.2581,-40.5625 C-52.2581,-39.28 -54.7434,-37.5967 -58.3103,-37.5967 L-119.869,-37.5967 C-123.331,-37.6391 -125.828,-39.3416 -125.828,-40.5625 Z M-83.0647,-9.69137 L-83.0647,45.4011 C-83.0647,46.6678 -82.0378,47.6947 -80.7711,47.6947 C-79.5043,47.6947 -78.4774,46.6678 -78.4774,45.4011 L-78.4774,-9.69137 C-78.4774,-10.9581 -79.5043,-11.985 -80.7711,-11.985 C-82.0378,-11.985 -83.0647,-10.9581 -83.0647,-9.69137 Z M-83.0647,65.0689 L-83.0647,86.8742 C-83.0647,88.141 -82.0378,89.1679 -80.7711,89.1679 C-79.5043,89.1679 -78.4774,88.141 -78.4774,86.8742 L-78.4774,65.0689 C-78.4774,63.8022 -79.5043,62.7753 -80.7711,62.7753 C-82.0378,62.7753 -83.0647,63.8022 -83.0647,65.0689 Z M57.7351,-122.986 L79.6641,-101.057 C80.5598,-100.161 82.0121,-100.161 82.9078,-101.057 C83.8035,-101.953 83.8035,-103.405 82.9078,-104.3 L60.9788,-126.23 C60.0831,-127.125 58.6308,-127.125 57.7351,-126.23 C56.8394,-125.334 56.8394,-123.882 57.7351,-122.986 Z M87.4927,-93.2282 L96.1721,-84.5488 C97.0679,-83.6531 98.5201,-83.6531 99.4158,-84.5488 C100.312,-85.4445 100.312,-86.8968 99.4158,-87.7925 L90.7364,-96.4719 C89.8407,-97.3676 88.3884,-97.3676 87.4927,-96.4719 C86.597,-95.5762 86.597,-94.1239 87.4927,-93.2282 Z M54.9971,33.6963 L-54.9971,33.6963 C-56.1965,33.6963 -57.1687,34.6686 -57.1687,35.868 C-57.1687,37.0673 -56.1965,38.0396 -54.9971,38.0396 L54.9971,38.0396 C56.1965,38.0396 57.1687,37.0673 57.1687,35.868 C57.1687,34.6686 56.1965,33.6963 54.9971,33.6963 Z M54.9971,60.5912 L-54.9971,60.5912 C-56.1965,60.5912 -57.1687,61.5634 -57.1687,62.7628 C-57.1687,63.9621 -56.1965,64.9344 -54.9971,64.9344 L54.9971,64.9344 C56.1965,64.9344 57.1687,63.9621 57.1687,62.7628 C57.1687,61.5634 56.1965,60.5912 54.9971,60.5912 Z M54.9971,87.486 L-54.9971,87.486 C-56.1965,87.486 -57.1687,88.4582 -57.1687,89.6576 C-57.1687,90.8569 -56.1965,91.8292 -54.9971,91.8292 L54.9971,91.8292 C56.1965,91.8292 57.1687,90.8569 57.1687,89.6576 C57.1687,88.4582 56.1965,87.486 54.9971,87.486 Z M54.9971,-19.6841 L-54.9971,-19.6841 C-56.1965,-19.6841 -57.1687,-18.7118 -57.1687,-17.5125 C-57.1687,-16.3131 -56.1965,-15.3408 -54.9971,-15.3408 L54.9971,-15.3409 C56.1965,-15.3409 57.1687,-16.3131 57.1687,-17.5125 C57.1687,-18.7118 56.1965,-19.6841 54.9971,-19.6841 Z M54.9971,7.21073 L-54.9971,7.21073 C-56.1965,7.21073 -57.1687,8.183 -57.1687,9.38235 C-57.1687,10.5817 -56.1965,11.554 -54.9971,11.554 L54.9971,11.554 C56.1965,11.554 57.1687,10.5817 57.1687,9.38234 C57.1687,8.18299 56.1965,7.21073 54.9971,7.21073 Z M-104.552,-66.6143 C-104.552,-67.9828 -104.797,-69.1144 -105.287,-70.0092 C-105.776,-70.904 -106.468,-71.6514 -107.363,-72.2514 C-108.121,-72.7567 -108.989,-73.1278 -109.968,-73.3646 C-110.947,-73.6015 -112.142,-73.7199 -113.553,-73.7199 L-119.932,-73.7199 L-119.932,-50.2083 L-116.806,-50.2083 L-116.806,-58.9718 L-113.679,-58.9718 C-111.995,-58.9718 -110.6,-59.1745 -109.495,-59.5798 C-108.389,-59.985 -107.431,-60.593 -106.621,-61.4035 C-105.968,-62.0562 -105.46,-62.8273 -105.097,-63.7168 C-104.734,-64.6063 -104.552,-65.5722 -104.552,-66.6143 Z M-107.805,-66.5354 C-107.805,-65.8406 -107.908,-65.2142 -108.113,-64.6563 C-108.318,-64.0984 -108.668,-63.5668 -109.163,-63.0615 C-109.658,-62.5667 -110.3,-62.2062 -111.089,-61.9799 C-111.879,-61.7535 -112.905,-61.6404 -114.169,-61.6404 L-116.806,-61.6404 L-116.806,-71.0356 L-113.711,-71.0356 C-112.721,-71.0356 -111.903,-70.9645 -111.255,-70.8224 C-110.608,-70.6803 -110.032,-70.4461 -109.526,-70.1197 C-108.947,-69.7408 -108.516,-69.2513 -108.231,-68.6513 C-107.947,-68.0512 -107.805,-67.3459 -107.805,-66.5354 Z M-80.567,-61.9404 C-80.567,-64.2247 -81.0144,-66.1985 -81.9091,-67.8617 C-82.8039,-69.525 -84.0513,-70.8566 -85.6514,-71.8567 C-86.5883,-72.4356 -87.7331,-72.8909 -89.0858,-73.2225 C-90.4385,-73.5541 -92.2623,-73.7199 -94.5571,-73.7199 L-100.431,-73.7199 L-100.431,-50.2083 L-94.494,-50.2083 C-92.336,-50.2083 -90.5964,-50.3556 -89.2753,-50.6504 C-87.9542,-50.9451 -86.7567,-51.4241 -85.683,-52.0873 C-84.1356,-53.0452 -82.896,-54.3927 -81.9644,-56.1296 C-81.0328,-57.8665 -80.567,-59.8035 -80.567,-61.9404 Z M-83.8355,-61.9878 C-83.8355,-60.1561 -84.1277,-58.6297 -84.7119,-57.4086 C-85.2961,-56.1875 -86.1725,-55.2032 -87.341,-54.4558 C-88.2779,-53.8558 -89.3069,-53.4453 -90.428,-53.2242 C-91.5491,-53.0031 -92.8623,-52.8926 -94.3676,-52.8926 L-97.3046,-52.8926 L-97.3046,-71.0356 L-94.3676,-71.0356 C-92.9149,-71.0356 -91.6675,-70.9329 -90.6253,-70.7277 C-89.5832,-70.5224 -88.5989,-70.1566 -87.6726,-69.6302 C-86.3988,-68.9039 -85.4409,-67.9091 -84.7987,-66.6459 C-84.1566,-65.3827 -83.8355,-63.83 -83.8355,-61.9878 Z M-60.4976,-73.7199 L-75.5141,-73.7199 L-75.5141,-50.2083 L-72.3876,-50.2083 L-72.3876,-61.5299 L-62.1713,-61.5299 L-62.1713,-64.3089 L-72.3876,-64.3089 L-72.3876,-70.9408 L-60.4976,-70.9408 L-60.4976,-73.7199 Z" transform="matrix(13.65333 0 0 13.65333 2048 2048)" style="fill: inherit;"/><path d="M-104.552,-66.7624 C-104.552,-68.1309 -104.797,-69.2625 -105.287,-70.1573 C-105.776,-71.0521 -106.468,-71.7995 -107.363,-72.3995 C-108.121,-72.9048 -108.989,-73.2759 -109.968,-73.5127 C-110.947,-73.7496 -112.142,-73.868 -113.553,-73.868 L-119.932,-73.868 L-119.932,-50.3563 L-116.806,-50.3563 L-116.806,-59.1199 L-113.679,-59.1199 C-111.995,-59.1199 -110.6,-59.3226 -109.495,-59.7278 C-108.389,-60.1331 -107.431,-60.7411 -106.621,-61.5516 C-105.968,-62.2043 -105.46,-62.9754 -105.097,-63.8649 C-104.734,-64.7544 -104.552,-65.7202 -104.552,-66.7624 Z M-107.805,-66.6834 C-107.805,-65.9887 -107.908,-65.3623 -108.113,-64.8044 C-108.318,-64.2465 -108.668,-63.7149 -109.163,-63.2096 C-109.658,-62.7148 -110.3,-62.3543 -111.089,-62.128 C-111.879,-61.9016 -112.905,-61.7885 -114.169,-61.7885 L-116.806,-61.7885 L-116.806,-71.1837 L-113.711,-71.1837 C-112.721,-71.1837 -111.903,-71.1126 -111.255,-70.9705 C-110.608,-70.8284 -110.032,-70.5942 -109.526,-70.2678 C-108.947,-69.8889 -108.516,-69.3994 -108.231,-68.7993 C-107.947,-68.1993 -107.805,-67.494 -107.805,-66.6834 Z M-80.567,-62.0885 C-80.567,-64.3728 -81.0144,-66.3466 -81.9091,-68.0098 C-82.8039,-69.6731 -84.0513,-71.0047 -85.6514,-72.0048 C-86.5883,-72.5837 -87.7331,-73.039 -89.0858,-73.3706 C-90.4385,-73.7022 -92.2623,-73.868 -94.5571,-73.868 L-100.431,-73.868 L-100.431,-50.3563 L-94.494,-50.3563 C-92.336,-50.3563 -90.5964,-50.5037 -89.2753,-50.7985 C-87.9542,-51.0932 -86.7567,-51.5722 -85.683,-52.2354 C-84.1356,-53.1933 -82.896,-54.5408 -81.9644,-56.2777 C-81.0328,-58.0146 -80.567,-59.9515 -80.567,-62.0885 Z M-83.8355,-62.1359 C-83.8355,-60.3042 -84.1277,-58.7778 -84.7119,-57.5567 C-85.2961,-56.3356 -86.1725,-55.3513 -87.341,-54.6039 C-88.2779,-54.0039 -89.3069,-53.5933 -90.428,-53.3723 C-91.5491,-53.1512 -92.8623,-53.0407 -94.3676,-53.0407 L-97.3046,-53.0407 L-97.3046,-71.1837 L-94.3676,-71.1837 C-92.9149,-71.1837 -91.6675,-71.081 -90.6253,-70.8758 C-89.5832,-70.6705 -88.5989,-70.3047 -87.6726,-69.7783 C-86.3988,-69.052 -85.4409,-68.0572 -84.7987,-66.794 C-84.1566,-65.5308 -83.8355,-63.9781 -83.8355,-62.1359 Z M-60.4976,-73.868 L-75.5141,-73.868 L-75.5141,-50.3563 L-72.3876,-50.3563 L-72.3876,-61.6779 L-62.1713,-61.6779 L-62.1713,-64.457 L-72.3876,-64.457 L-72.3876,-71.0889 L-60.4976,-71.0889 L-60.4976,-73.868 Z" transform="matrix(13.65333 0 0 13.65333 2048 2048)" style="fill: inherit;"/></g></svg>