<svg xmlns="http://www.w3.org/2000/svg" xmlns:xlink="http://www.w3.org/1999/xlink" data-name="Layer 1" preserveAspectRatio="xMidYMid meet" version="1.0" viewBox="1.0 1.5 22.4 21.8" zoomAndPan="magnify" style="fill: rgb(17, 6, 59);" original_string_length="999"><g id="__id189_s79fqal8oj"><path d="M12,1.5A10.48693,10.48693,0,0,0,3.00586,17.40137L1.52539,21.8418A.50037.50037,0,0,0,2,22.5a.4925.4925,0,0,0,.1582-.02588l4.44043-1.48A10.49637,10.49637,0,1,0,12,1.5Zm0,20a9.46682,9.46682,0,0,1-5.07031-1.47656.50018.50018,0,0,0-.26758-.07764.4925.4925,0,0,0-.1582.02588L2.79,21.20947l1.23828-3.71338a.50338.50338,0,0,0-.05176-.42578A9.49332,9.49332,0,1,1,12,21.5Zm.5-4A.5.5,0,1,1,12,17,.5.5,0,0,1,12.5,17.5Zm2.94434-8.13037a3.5226,3.5226,0,0,1-1.75684,3.69726A2.13934,2.13934,0,0,0,12.5,14.91309a.53863.53863,0,0,1-.5.54345A.46448.46448,0,0,1,11.5,15v-.08691a3.12417,3.12417,0,0,1,1.70508-2.72217A2.50024,2.50024,0,1,0,9.5,10a.5.5,0,0,1-1,0,3.50066,3.50066,0,0,1,6.94434-.63037Z" style="fill: inherit;"/></g></svg>