<svg xmlns="http://www.w3.org/2000/svg" xmlns:xlink="http://www.w3.org/1999/xlink" preserveAspectRatio="xMidYMid meet" version="1.0" viewBox="4.0 4.0 40.0 40.0" zoomAndPan="magnify" style="fill: rgb(115, 115, 115);" original_string_length="591"><g id="__id209_sih9e8nxac"><path d="M42.82 23.16l-17.99-17.99c-.73-.72-1.73-1.17-2.83-1.17h-14c-2.21 0-4 1.79-4 4v14c0 1.11.45 2.11 1.18 2.83l18 18c.72.72 1.72 1.17 2.82 1.17 1.1 0 2.11-.45 2.83-1.17l14-14c.72-.73 1.17-1.73 1.17-2.83 0-1.11-.45-2.11-1.18-2.84zm-31.82-9.16c-1.66 0-3-1.34-3-3s1.34-3 3-3 3 1.34 3 3-1.34 3-3 3z" style="fill: inherit;"/></g></svg>