
<svg xmlns="http://www.w3.org/2000/svg" xmlns:xlink="http://www.w3.org/1999/xlink" preserveAspectRatio="xMidYMid meet" version="1.0" viewBox="8.0 14.0 48.2 36.8" zoomAndPan="magnify" style="fill: rgb(115, 115, 115);" original_string_length="834"><g id="__id225_sih9e8nxac"><path d="M38 14L30.7 14 27.4 20.3 34.3 20.3z" style="fill: inherit;"/></g><g id="__id226_sih9e8nxac"><path d="M48.8 14L41.6 14 38.3 20.3 45.1 20.3z" style="fill: inherit;"/></g><g id="__id227_sih9e8nxac"><path d="M55.9 14L52.1 14 49.2 20.3 55.9 20.3z" style="fill: inherit;"/></g><g id="__id228_sih9e8nxac"><path d="M27 14.1L8 14.1 8 15.9 8 20.3 23.6 20.3z" style="fill: inherit;"/></g><g id="__id229_sih9e8nxac"><path d="m8.1 47.5c0 1.8 1.6 3.3 3.6 3.3h40.9c2 0 3.6-1.5 3.6-3.3v-23h-48c-0.1-0.1-0.1 23-0.1 23zm17.9-13.1c0-1.8 1.4-2.7 3.2-1.8l7.6 3.5c1.8 0.8 1.8 2.2 0 3l-7.6 3.5c-1.8 0.8-3.2 0-3.2-1.8v-6.4z" style="fill: inherit;"/></g></svg>