<svg xmlns="http://www.w3.org/2000/svg" xmlns:xlink="http://www.w3.org/1999/xlink" data-name="Layer 2" preserveAspectRatio="xMidYMid meet" version="1.0" viewBox="4.4 3.0 55.7 58.0" zoomAndPan="magnify" style="fill: rgb(17, 6, 59);" original_string_length="1503"><g id="__id215_sih9e8nxac"><path d="M4.41,4V60a1,1,0,0,0,1,1h44a1,1,0,0,0,1-1V43.26L57.75,32h0l1.16-1.77a4.11,4.11,0,0,0-1.19-5.68l-.22-.14a4.1,4.1,0,0,0-5.68,1.19L50.91,27h0l-.52.8V11.22a1,1,0,0,0-.28-.68L42.88,3.29A.94.94,0,0,0,42.2,3H5.38A1,1,0,0,0,4.41,4Zm41,43.39-3.85-2.52L52,28.86l3.85,2.52ZM41,46.81l2.77,1.81-3.09,1.7ZM56.45,26l.22.14a2.16,2.16,0,0,1,.63,3l-.4.61-3.85-2.51.4-.62A2.17,2.17,0,0,1,56.45,26Zm-9-15.39H42.83V6ZM6.35,4.93H40.89v6.66a1,1,0,0,0,1,1h6.59V30.75L39.4,44.59a.06.06,0,0,0,0,0,.87.87,0,0,0-.07.17,1.39,1.39,0,0,0-.06.19s0,0,0,0L38.63,52a1,1,0,0,0,.43.9,1,1,0,0,0,1,0l6.07-3.34h0a.72.72,0,0,0,.25-.21l.05-.06,0,0,2-3V59.07H6.35Z" style="fill: inherit;"/></g><g id="__id216_sih9e8nxac"><path d="M12.59,17.38l30,.1h0a1,1,0,1,0,0-1.94l-30-.09h0a1,1,0,1,0,0,1.93Z" style="fill: inherit;"/></g><g id="__id217_sih9e8nxac"><path d="M12.59,26.55l30,.1h0a1,1,0,0,0,1-1,1,1,0,0,0-1-1l-30-.1h0a1,1,0,1,0,0,1.93Z" style="fill: inherit;"/></g><g id="__id218_sih9e8nxac"><path d="M36.41,33.89l-23.82-.1h0a1,1,0,1,0,0,1.94l23.82.09h0a1,1,0,1,0,0-1.93Z" style="fill: inherit;"/></g><g id="__id219_sih9e8nxac"><path d="M33.22,48,13,47.87h0a1,1,0,0,0,0,1.93l20.24.1h0a1,1,0,1,0,0-1.94Z" style="fill: inherit;"/></g></svg>